<svg width="139" height="68" viewBox="0 0 139 68" fill="none" xmlns="http://www.w3.org/2000/svg">
<path d="M29.7084 17.5832C38.3894 17.5832 45.4168 24.6106 45.4168 33.2916C45.4168 41.9726 38.3894 49 29.7084 49C21.0274 49 14 41.9726 14 33.2916C14 24.6106 21.0274 17.5832 29.7084 17.5832ZM24.656 19.3286C18.7768 21.4414 16.2966 29.3875 19.0983 37.1498C21.9001 44.8662 28.8817 49.4134 34.7608 47.3006C40.5941 45.1877 43.1203 37.1957 40.3185 29.4793C37.5167 21.7629 30.4892 17.2157 24.656 19.3286Z" fill="#2B192E"/>
<path d="M54.9174 36.5527C54.5499 36.9201 54.2284 37.2876 53.9069 37.655V42.5237C53.9069 47.3924 54.8714 48.6785 56.8465 48.5866V49H46.8335V48.5866C48.8085 48.6785 49.7731 47.3924 49.7731 42.5237V24.0595C49.7731 19.1908 48.8085 17.9047 46.8335 17.9966V17.5832C49.5434 17.5832 52.6668 16.343 53.9069 14.5517V36.323C54.4121 35.7719 54.9174 35.2666 55.4685 34.7155L63.0012 27.4124C63.5524 26.8612 63.5983 26.4019 63.3228 25.713C63.2768 25.5752 63.185 25.4374 63.185 25.3455C62.6797 24.4269 62.0367 24.4269 60.7506 24.4728V24.0595H68.467V24.4728C67.0432 24.4269 66.5839 25.024 65.7112 25.8967L58.5 32.8782C59.5564 32.5108 60.7047 32.2352 61.9908 32.2352C66.0327 32.2352 67.2728 35.6341 68.0536 38.9411C68.6048 41.2836 68.9263 43.4883 70.5339 45.8767C71.131 46.7494 72.3712 47.7599 73.5194 46.8412L73.841 47.1168C73.152 48.4488 71.82 49 70.488 49C65.3437 49 64.8385 42.5697 63.7821 38.8492C62.4041 33.8887 58.7756 32.7404 54.9174 36.5527Z" fill="#2B192E"/>
<path d="M99.9258 47.1168C99.2369 48.4488 97.9508 49 96.6188 49C93.6333 49 92.3013 46.9331 91.3827 44.4528C90.7396 42.6615 90.2803 40.5487 89.9129 38.3899C89.4995 43.8557 87.157 49 80.6348 49C76.6388 49 73.5614 46.7494 73.7911 42.4778C74.2045 35.6341 82.9314 34.348 85.182 29.8008C87.157 25.9426 84.0796 23.9217 80.6348 25.4833C78.476 26.4479 76.3173 28.6066 75.3068 29.9846L73.837 26.1263C76.5469 24.8403 79.9918 24.0595 83.5285 24.0595C90.3263 24.0595 91.9798 26.8612 93.2199 32.9241C94.2304 37.6091 94.6897 42.9371 96.6647 45.8767C97.2159 46.7494 98.502 47.7599 99.6043 46.8412L99.9258 47.1168ZM88.7187 31.6381C88.3053 29.9846 87.7082 28.4229 86.7896 27.2287C87.157 28.7444 86.7436 30.5817 86.0087 31.8677C84.0337 35.4044 79.0731 37.012 78.1086 41.4214C77.6493 43.672 78.3842 46.0604 81.0023 46.7035C84.4011 47.5302 87.2489 44.7744 88.2594 41.8807C89.3158 38.8952 89.4536 34.6695 88.7187 31.6381Z" fill="#2B192E"/>
<path d="M98.5956 24.0595C100.938 24.0595 104.016 22.4519 105.256 20.0635H105.669V24.0595H111.41V24.8862H105.669V43.3505C105.669 47.9436 108.471 47.8977 111.089 44.8203L111.41 45.0959C110.032 47.025 108.379 49 105.853 49C102.638 49 101.535 46.1064 101.535 43.3505V24.8862H98.5956V24.0595Z" fill="#2B192E"/>
<path d="M119.35 42.5237C119.35 47.3924 120.314 48.6785 122.289 48.5866V49H112.276V48.5866C114.251 48.6785 115.216 47.3924 115.216 42.5237V33.6131C115.216 28.7444 114.251 27.4124 112.276 27.5043V27.0909C114.986 27.0909 118.11 25.8508 119.35 24.0595V42.5237ZM117.283 17.5832C118.936 17.5832 120.314 18.9152 120.314 20.5687C120.314 22.2681 118.936 23.6001 117.283 23.6001C115.629 23.6001 114.251 22.2681 114.251 20.5687C114.251 18.9152 115.629 17.5832 117.283 17.5832Z" fill="#2B192E"/>
</svg>
